<?xml version="1.0" encoding="utf-8"?>
<!-- Generator: Adobe Illustrator 28.2.0, SVG Export Plug-In . SVG Version: 6.00 Build 0)  -->
<!DOCTYPE svg PUBLIC "-//W3C//DTD SVG 1.1//EN" "http://www.w3.org/Graphics/SVG/1.1/DTD/svg11.dtd" [
	<!ENTITY ns_extend "http://ns.adobe.com/Extensibility/1.0/">
	<!ENTITY ns_ai "http://ns.adobe.com/AdobeIllustrator/10.0/">
	<!ENTITY ns_graphs "http://ns.adobe.com/Graphs/1.0/">
	<!ENTITY ns_vars "http://ns.adobe.com/Variables/1.0/">
	<!ENTITY ns_imrep "http://ns.adobe.com/ImageReplacement/1.0/">
	<!ENTITY ns_sfw "http://ns.adobe.com/SaveForWeb/1.0/">
	<!ENTITY ns_custom "http://ns.adobe.com/GenericCustomNamespace/1.0/">
	<!ENTITY ns_adobe_xpath "http://ns.adobe.com/XPath/1.0/">
]>
<svg version="1.1" id="th_color" xmlns:x="&ns_extend;" xmlns:i="&ns_ai;" xmlns:graph="&ns_graphs;"
	 xmlns="http://www.w3.org/2000/svg" xmlns:xlink="http://www.w3.org/1999/xlink" x="0px" y="0px" viewBox="0 0 26 26"
	 style="enable-background:new 0 0 26 26;" xml:space="preserve">
<style type="text/css">
	.st0{fill:#FFFFFF;}
</style>
<metadata>
	<sfw  xmlns="&ns_sfw;">
		<slices></slices>
		<sliceSourceBounds  bottomLeftOrigin="true" height="15.5" width="15.5" x="5.2" y="5.3"></sliceSourceBounds>
	</sfw>
</metadata>
<script  xmlns="">
	(function(){const e=()=&gt;{};let t=null,o=null,n=[],i=e,r=e,a=e,s=e;try{i=window.fetch,r=window.XMLHttpRequest.prototype.open,a=window.XMLHttpRequest.prototype.send,s=window.XMLHttpRequest.prototype.setRequestHeader}catch(e){0}function c(e){return!(!window.XMLHttpRequest||!window.XMLHttpRequest.prototype||&quot;function&quot;!=typeof window.XMLHttpRequest.prototype[e])}function d(){let e=[];return{subscribe:t=&gt;{e.push(t)},next:t=&gt;{e.length&amp;&amp;e.forEach((e=&gt;e(t)))},clear:()=&gt;{e.length=0}}}const l=new d,p=new WeakMap,u=new WeakMap,E=new WeakMap;c(&quot;open&quot;)&amp;&amp;c(&quot;send&quot;)&amp;&amp;c(&quot;setRequestHeader&quot;)&amp;&amp;(window.XMLHttpRequest.prototype.open=function(...e){if(p.set(this,{method:e[0]&amp;&amp;e[0].toUpperCase()||&quot;GET&quot;}),!0===this.__amicabletbecoxhro||&quot;OFF&quot;===t){r.apply(this,e);const t=u.get(this);t&amp;&amp;t.next()}else{const t=u.get(this)||new d;u.set(this,t),this.__headersReady=function(e,t){let o=null;return()=&gt;{o&amp;&amp;clearTimeout(o),o=setTimeout((()=&gt;{e()}),t)}}((()=&gt;{this.__onPendingHeadersSet&amp;&amp;this.__onPendingHeadersSet()}),50),l.subscribe((()=&gt;{c(&quot;open&quot;)&amp;&amp;window.XMLHttpRequest.prototype.open.apply(this,e)}))}},window.XMLHttpRequest.prototype.setRequestHeader=function(...e){if(this.readyState===XMLHttpRequest.OPENED||&quot;OFF&quot;===t)s.apply(this,e);else{E.set(this,!0);const t=u.get(this);t&amp;&amp;t.subscribe((()=&gt;{s.apply(this,e),this.__headersReady()}))}},window.XMLHttpRequest.prototype.send=function(e){if(this.addEventListener(&quot;readystatechange&quot;,(()=&gt;{if(&quot;OFF&quot;!==o&amp;&amp;this.readyState===XMLHttpRequest.DONE)try{const t=p.get(this),i=t&amp;&amp;&quot;string&quot;==typeof t.method&amp;&amp;t.method.toUpperCase()||&quot;&quot;;let r,a=[];try{const e=this.getAllResponseHeaders();a=(e&amp;&amp;e.trim().split(/[\r\n]+/)).reduce(((e,t)=&gt;{try{const o=t.split(&quot;: &quot;),n=o.shift(),i=o.join(&quot;: &quot;);e.push({active:!0,header:n,value:i})}catch(e){}return e}),[])}catch(e){a=[]}try{r=&quot;string&quot;==typeof this.response?this.response:JSON.stringify(this.response)}catch(e){r=this.response}const s={type:&quot;STASH_REQUESTS&quot;,payload:[[{method:i,requestURL:this.responseURL,responsePayload:r,requestPayload:e,status:this.status,timestamp:Date.now(),responseHeaders:a}]]};&quot;ON&quot;===o?window.postMessage(s,&quot;*&quot;):n.push(s.payload[0][0])}catch(e){}})),&quot;OFF&quot;===t)a.call(this,e);else if(E.get(this))this.__onPendingHeadersSet=()=&gt;{E.delete(this),c(&quot;send&quot;)&amp;&amp;this.readyState===XMLHttpRequest.OPENED&amp;&amp;window.XMLHttpRequest.prototype.send.call(this,e),this.__onPendingHeadersSet=null};else if(this.readyState===XMLHttpRequest.OPENED&amp;&amp;!0===this.__amicabletbebypoxhrs){Object.defineProperty(this,&quot;readyState&quot;,{writable:!0,configurable:!0,value:XMLHttpRequest.LOADING});const e=new Event(&quot;readystatechange&quot;);this.dispatchEvent(e)}else if(this.readyState===XMLHttpRequest.OPENED&amp;&amp;!0===this.__amicabletbecoxhrs)a.call(this,e);else{const t=u.get(this);t&amp;&amp;t.subscribe((()=&gt;{c(&quot;send&quot;)&amp;&amp;this.readyState===XMLHttpRequest.OPENED&amp;&amp;window.XMLHttpRequest.prototype.send.call(this,e)}))}}),window.fetch=(...e)=&gt;{const r=e[0];let a=e[1];const{url:s,method:c}=function(e,t){let o,n=&quot;GET&quot;;return&quot;string&quot;==typeof e?(o=e,n=t?.method?.toUpperCase()||&quot;GET&quot;):&quot;string&quot;==typeof e?.search?(o=e.toString(),n=t?.method?.toUpperCase()||&quot;GET&quot;):(o=e.url||&quot;&quot;,n=e?.method?.toUpperCase()||&quot;GET&quot;),{method:n,url:o}}(r,a),d=function(e,t){return new Promise((o=&gt;{if(&quot;string&quot;==typeof e||&quot;string&quot;==typeof e?.search){const e=t&amp;&amp;t.body||null;o(e)}else try{e.clone().text().then((e=&gt;{o(e)})).catch((e=&gt;{o(null)}))}catch(e){o(null)}}))}(r,a);let p=!1;try{if(&quot;string&quot;==typeof a?.headers?.amicabletbecof)switch(p=!0,a?.headers?.amicabletbecof){case&quot;no-init&quot;:a=void 0;break;case&quot;no-headers&quot;:a.headers=void 0;break;default:delete a.headers.amicabletbecof}}catch(e){0}return p||&quot;OFF&quot;===t?i(r,a).then((async e=&gt;{if(&quot;OFF&quot;===o)return e;try{const t=await d;let i;try{i=t.replace(/\s/gi,&quot;&quot;)}catch(e){i=t}const r=e.clone(),a=await r.text();let l=[];try{for(const e of r?.headers?.entries()){const t=e[0],o=e[1];l.push({active:!0,header:t,value:o})}}catch(e){l=[]}const p={type:&quot;STASH_REQUESTS&quot;,payload:[[{method:c&amp;&amp;c.toUpperCase()||&quot;GET&quot;,requestURL:s,responsePayload:a,requestPayload:i,responseHeaders:l,status:e.status,timestamp:Date.now()}]]};&quot;ON&quot;===o?window.postMessage(p,&quot;*&quot;):n.push(p.payload[0][0])}catch(e){}return e})):((...e)=&gt;new Promise((t=&gt;{l.subscribe((()=&gt;{t(window.fetch(...e))}))})))(...e)},l.subscribe((()=&gt;{try{window.postMessage({type:&quot;__TWEAK_BOOTSTRAP_FINISHED__&quot;,payload:[]})}catch(e){0}}));const h=[&quot;ON&quot;,&quot;OFF&quot;];setTimeout((()=&gt;{t&amp;&amp;h.includes(t)||(t=&quot;OFF&quot;,l.next())}),5e3),window.__onttis=e=&gt;{e&amp;&amp;h.includes(e)&amp;&amp;(t&amp;&amp;h.includes(t)?t=e:(t=e,l.next()))},window.__onttss__=(e,t)=&gt;{if(e&amp;&amp;h.includes(e)){if(&quot;OFF&quot;===e&amp;&amp;&quot;user&quot;===t&amp;&amp;n.length)n=[];else if(&quot;ON&quot;===e&amp;&amp;&quot;system&quot;===t&amp;&amp;n.length)try{window.postMessage({type:&quot;STASH_REQUESTS&quot;,payload:[n]})}catch(e){0}n=[],o=e}},window.__textm__=&quot;c2&quot;})();
	</script>
<script  async="false" defer="false" id="__tweak_browser_extension_intercept_script__" src="moz-extension://75e20108-2e47-458e-9b9f-8ed74623f3d5/intercept.bundle.js" xmlns="">
	</script>
<path class="st0" d="M6,19.2c-0.4,0-0.8,0.3-0.8,0.7c0,0.4,0.3,0.8,0.7,0.8c0.4,0,0.8-0.3,0.8-0.7C6.7,19.6,6.4,19.3,6,19.2
	C6,19.3,6,19.2,6,19.2z"/>
<path class="st0" d="M8,19.2c-0.4,0-0.8,0.3-0.8,0.7c0,0.4,0.3,0.8,0.7,0.8c0.4,0,0.8-0.3,0.8-0.7C8.7,19.6,8.4,19.3,8,19.2
	C8,19.3,8,19.2,8,19.2z"/>
<path class="st0" d="M10,19.2c-0.4,0-0.8,0.3-0.8,0.7s0.3,0.8,0.7,0.8c0.4,0,0.8-0.3,0.8-0.7C10.7,19.6,10.4,19.3,10,19.2
	C10,19.3,10,19.2,10,19.2z"/>
<path class="st0" d="M12,19.2c-0.4,0-0.8,0.3-0.8,0.7s0.3,0.8,0.7,0.8c0.4,0,0.8-0.3,0.8-0.7C12.7,19.6,12.4,19.3,12,19.2
	C12,19.3,12,19.2,12,19.2z"/>
<path class="st0" d="M14,19.2c-0.4,0-0.8,0.3-0.8,0.7s0.3,0.8,0.7,0.8c0.4,0,0.8-0.3,0.8-0.7C14.7,19.6,14.4,19.3,14,19.2
	C14,19.3,14,19.2,14,19.2z"/>
<path class="st0" d="M16,19.2c-0.4,0-0.8,0.3-0.8,0.7s0.3,0.8,0.7,0.8c0.4,0,0.8-0.3,0.8-0.7C16.7,19.6,16.4,19.3,16,19.2
	C16,19.3,16,19.2,16,19.2z"/>
<path class="st0" d="M18,19.2c-0.4,0-0.8,0.3-0.8,0.7s0.3,0.8,0.7,0.8c0.4,0,0.8-0.3,0.8-0.7C18.7,19.6,18.4,19.3,18,19.2
	C18,19.3,18,19.2,18,19.2z"/>
<path class="st0" d="M20,19.2c-0.4,0-0.8,0.3-0.8,0.7s0.3,0.8,0.7,0.8c0.4,0,0.8-0.3,0.8-0.7C20.7,19.6,20.4,19.3,20,19.2
	C20,19.3,20,19.2,20,19.2z"/>
<path class="st0" d="M20,17.2c-0.4,0-0.8,0.3-0.8,0.7s0.3,0.8,0.7,0.8c0.4,0,0.8-0.3,0.8-0.7C20.7,17.6,20.4,17.3,20,17.2
	C20,17.3,20,17.2,20,17.2z"/>
<path class="st0" d="M20,15.2c-0.4,0-0.8,0.3-0.8,0.7s0.3,0.8,0.7,0.8c0.4,0,0.8-0.3,0.8-0.7C20.7,15.6,20.4,15.3,20,15.2
	C20,15.3,20,15.3,20,15.2z"/>
<path class="st0" d="M20,13.2c-0.4,0-0.8,0.3-0.8,0.7s0.3,0.8,0.7,0.8c0.4,0,0.8-0.3,0.8-0.7C20.7,13.6,20.4,13.3,20,13.2
	C20,13.3,20,13.3,20,13.2z"/>
<path class="st0" d="M20,11.2c-0.4,0-0.8,0.3-0.8,0.7s0.3,0.8,0.7,0.8c0.4,0,0.8-0.3,0.8-0.7C20.7,11.6,20.4,11.3,20,11.2
	C20,11.3,20,11.3,20,11.2z"/>
<path class="st0" d="M20,9.2c-0.4,0-0.8,0.3-0.8,0.7s0.3,0.8,0.7,0.8c0.4,0,0.8-0.3,0.8-0.7C20.7,9.6,20.4,9.3,20,9.2
	C20,9.3,20,9.3,20,9.2z"/>
<path class="st0" d="M20,7.2c-0.4,0-0.8,0.3-0.8,0.7c0,0.4,0.3,0.8,0.7,0.8c0.4,0,0.8-0.3,0.8-0.7C20.7,7.6,20.4,7.3,20,7.2
	C20,7.3,20,7.3,20,7.2z"/>
<path class="st0" d="M20,5.2c-0.4,0-0.8,0.3-0.8,0.7c0,0.4,0.3,0.8,0.7,0.8c0.4,0,0.8-0.3,0.8-0.7C20.7,5.6,20.4,5.3,20,5.2
	C20,5.3,20,5.3,20,5.2z"/>
<path class="st0" d="M18,5.2c-0.4,0-0.8,0.3-0.8,0.7c0,0.4,0.3,0.8,0.7,0.8c0.4,0,0.8-0.3,0.8-0.7C18.7,5.6,18.4,5.3,18,5.2
	C18,5.3,18,5.3,18,5.2z"/>
<path class="st0" d="M16,5.2c-0.4,0-0.8,0.3-0.8,0.7c0,0.4,0.3,0.8,0.7,0.8c0.4,0,0.8-0.3,0.8-0.7C16.7,5.6,16.4,5.3,16,5.2
	C16,5.3,16,5.3,16,5.2z"/>
<path class="st0" d="M14,5.2c-0.4,0-0.8,0.3-0.8,0.7c0,0.4,0.3,0.8,0.7,0.8c0.4,0,0.8-0.3,0.8-0.7C14.7,5.6,14.4,5.3,14,5.2
	C14,5.3,14,5.3,14,5.2z"/>
<path class="st0" d="M12,5.2c-0.4,0-0.8,0.3-0.8,0.7c0,0.4,0.3,0.8,0.7,0.8c0.4,0,0.8-0.3,0.8-0.7C12.7,5.6,12.4,5.3,12,5.2
	C12,5.3,12,5.3,12,5.2z"/>
<path class="st0" d="M10,5.2C9.6,5.2,9.2,5.6,9.2,6c0,0.4,0.3,0.8,0.7,0.8c0.4,0,0.8-0.3,0.8-0.7C10.7,5.6,10.4,5.3,10,5.2
	C10,5.3,10,5.3,10,5.2z"/>
<path class="st0" d="M8,5.2C7.6,5.2,7.2,5.6,7.2,6S7.6,6.8,8,6.8c0.4,0,0.8-0.3,0.8-0.8S8.4,5.2,8,5.2z"/>
<path class="st0" d="M6,5.2C5.6,5.2,5.2,5.6,5.2,6S5.6,6.8,6,6.8S6.8,6.4,6.8,6S6.4,5.2,6,5.2z"/>
<path class="st0" d="M6,7.2C5.6,7.2,5.2,7.6,5.2,8c0,0.4,0.3,0.8,0.8,0.8S6.8,8.4,6.8,8C6.8,7.6,6.4,7.2,6,7.2z"/>
<path class="st0" d="M6,9.2c-0.4,0-0.8,0.3-0.8,0.7c0,0.4,0.3,0.8,0.7,0.8c0.4,0,0.8-0.3,0.8-0.7C6.7,9.6,6.4,9.3,6,9.2
	C6,9.3,6,9.3,6,9.2z"/>
<path class="st0" d="M6,11.2c-0.4,0-0.8,0.3-0.8,0.7c0,0.4,0.3,0.8,0.7,0.8c0.4,0,0.8-0.3,0.8-0.7C6.7,11.6,6.4,11.3,6,11.2
	C6,11.3,6,11.3,6,11.2z"/>
<path class="st0" d="M6,13.2c-0.4,0-0.8,0.3-0.8,0.7c0,0.4,0.3,0.8,0.7,0.8c0.4,0,0.8-0.3,0.8-0.7C6.7,13.6,6.4,13.3,6,13.2
	C6,13.3,6,13.3,6,13.2z"/>
<path class="st0" d="M6,15.2c-0.4,0-0.8,0.3-0.8,0.7c0,0.4,0.3,0.8,0.7,0.8c0.4,0,0.8-0.3,0.8-0.7C6.7,15.6,6.4,15.3,6,15.2
	C6,15.3,6,15.3,6,15.2z"/>
<path class="st0" d="M6,17.2c-0.4,0-0.8,0.3-0.8,0.7c0,0.4,0.3,0.8,0.7,0.8c0.4,0,0.8-0.3,0.8-0.7C6.7,17.6,6.4,17.3,6,17.2
	C6,17.3,6,17.2,6,17.2z"/>
<script  id="bw-fido2-page-script" xmlns=""></script>
</svg>
