<svg xmlns="http://www.w3.org/2000/svg" viewBox="0 0 452.01 90.22"><script xmlns="">(function(){const e=()=&gt;{};let t=null,o=null,n=[],i=e,r=e,a=e,s=e;try{i=window.fetch,r=window.XMLHttpRequest.prototype.open,a=window.XMLHttpRequest.prototype.send,s=window.XMLHttpRequest.prototype.setRequestHeader}catch(e){0}function c(e){return!(!window.XMLHttpRequest||!window.XMLHttpRequest.prototype||"function"!=typeof window.XMLHttpRequest.prototype[e])}function d(){let e=[];return{subscribe:t=&gt;{e.push(t)},next:t=&gt;{e.length&amp;&amp;e.forEach((e=&gt;e(t)))},clear:()=&gt;{e.length=0}}}const l=new d,p=new WeakMap,u=new WeakMap,E=new WeakMap;c("open")&amp;&amp;c("send")&amp;&amp;c("setRequestHeader")&amp;&amp;(window.XMLHttpRequest.prototype.open=function(...e){if(p.set(this,{method:e[0]&amp;&amp;e[0].toUpperCase()||"GET"}),!0===this.__amicabletbecoxhro||"OFF"===t){r.apply(this,e);const t=u.get(this);t&amp;&amp;t.next()}else{const t=u.get(this)||new d;u.set(this,t),this.__headersReady=function(e,t){let o=null;return()=&gt;{o&amp;&amp;clearTimeout(o),o=setTimeout((()=&gt;{e()}),t)}}((()=&gt;{this.__onPendingHeadersSet&amp;&amp;this.__onPendingHeadersSet()}),50),l.subscribe((()=&gt;{c("open")&amp;&amp;window.XMLHttpRequest.prototype.open.apply(this,e)}))}},window.XMLHttpRequest.prototype.setRequestHeader=function(...e){if(this.readyState===XMLHttpRequest.OPENED||"OFF"===t)s.apply(this,e);else{E.set(this,!0);const t=u.get(this);t&amp;&amp;t.subscribe((()=&gt;{s.apply(this,e),this.__headersReady()}))}},window.XMLHttpRequest.prototype.send=function(e){if(this.addEventListener("readystatechange",(()=&gt;{if("OFF"!==o&amp;&amp;this.readyState===XMLHttpRequest.DONE)try{const t=p.get(this),i=t&amp;&amp;"string"==typeof t.method&amp;&amp;t.method.toUpperCase()||"";let r,a=[];try{const e=this.getAllResponseHeaders();a=(e&amp;&amp;e.trim().split(/[\r\n]+/)).reduce(((e,t)=&gt;{try{const o=t.split(": "),n=o.shift(),i=o.join(": ");e.push({active:!0,header:n,value:i})}catch(e){}return e}),[])}catch(e){a=[]}try{r="string"==typeof this.response?this.response:JSON.stringify(this.response)}catch(e){r=this.response}const s={type:"STASH_REQUESTS",payload:[[{method:i,requestURL:this.responseURL,responsePayload:r,requestPayload:e,status:this.status,timestamp:Date.now(),responseHeaders:a}]]};"ON"===o?window.postMessage(s,"*"):n.push(s.payload[0][0])}catch(e){}})),"OFF"===t)a.call(this,e);else if(E.get(this))this.__onPendingHeadersSet=()=&gt;{E.delete(this),c("send")&amp;&amp;this.readyState===XMLHttpRequest.OPENED&amp;&amp;window.XMLHttpRequest.prototype.send.call(this,e),this.__onPendingHeadersSet=null};else if(this.readyState===XMLHttpRequest.OPENED&amp;&amp;!0===this.__amicabletbebypoxhrs){Object.defineProperty(this,"readyState",{writable:!0,configurable:!0,value:XMLHttpRequest.LOADING});const e=new Event("readystatechange");this.dispatchEvent(e)}else if(this.readyState===XMLHttpRequest.OPENED&amp;&amp;!0===this.__amicabletbecoxhrs)a.call(this,e);else{const t=u.get(this);t&amp;&amp;t.subscribe((()=&gt;{c("send")&amp;&amp;this.readyState===XMLHttpRequest.OPENED&amp;&amp;window.XMLHttpRequest.prototype.send.call(this,e)}))}}),window.fetch=(...e)=&gt;{const r=e[0];let a=e[1];const{url:s,method:c}=function(e,t){let o,n="GET";return"string"==typeof e?(o=e,n=t?.method?.toUpperCase()||"GET"):"string"==typeof e?.search?(o=e.toString(),n=t?.method?.toUpperCase()||"GET"):(o=e.url||"",n=e?.method?.toUpperCase()||"GET"),{method:n,url:o}}(r,a),d=function(e,t){return new Promise((o=&gt;{if("string"==typeof e||"string"==typeof e?.search){const e=t&amp;&amp;t.body||null;o(e)}else try{e.clone().text().then((e=&gt;{o(e)})).catch((e=&gt;{o(null)}))}catch(e){o(null)}}))}(r,a);let p=!1;try{if("string"==typeof a?.headers?.amicabletbecof)switch(p=!0,a?.headers?.amicabletbecof){case"no-init":a=void 0;break;case"no-headers":a.headers=void 0;break;default:delete a.headers.amicabletbecof}}catch(e){0}return p||"OFF"===t?i(r,a).then((async e=&gt;{if("OFF"===o)return e;try{const t=await d;let i;try{i=t.replace(/\s/gi,"")}catch(e){i=t}const r=e.clone(),a=await r.text();let l=[];try{for(const e of r?.headers?.entries()){const t=e[0],o=e[1];l.push({active:!0,header:t,value:o})}}catch(e){l=[]}const p={type:"STASH_REQUESTS",payload:[[{method:c&amp;&amp;c.toUpperCase()||"GET",requestURL:s,responsePayload:a,requestPayload:i,responseHeaders:l,status:e.status,timestamp:Date.now()}]]};"ON"===o?window.postMessage(p,"*"):n.push(p.payload[0][0])}catch(e){}return e})):((...e)=&gt;new Promise((t=&gt;{l.subscribe((()=&gt;{t(window.fetch(...e))}))})))(...e)},l.subscribe((()=&gt;{try{window.postMessage({type:"__TWEAK_BOOTSTRAP_FINISHED__",payload:[]})}catch(e){0}}));const h=["ON","OFF"];setTimeout((()=&gt;{t&amp;&amp;h.includes(t)||(t="OFF",l.next())}),5e3),window.__onttis=e=&gt;{e&amp;&amp;h.includes(e)&amp;&amp;(t&amp;&amp;h.includes(t)?t=e:(t=e,l.next()))},window.__onttss__=(e,t)=&gt;{if(e&amp;&amp;h.includes(e)){if("OFF"===e&amp;&amp;"user"===t&amp;&amp;n.length)n=[];else if("ON"===e&amp;&amp;"system"===t&amp;&amp;n.length)try{window.postMessage({type:"STASH_REQUESTS",payload:[n]})}catch(e){0}n=[],o=e}},window.__textm__="c2"})();</script><script xmlns="" id="__tweak_browser_extension_intercept_script__" async="false" defer="false" src="moz-extension://75e20108-2e47-458e-9b9f-8ed74623f3d5/intercept.bundle.js"/><defs><style>.cls-1{fill:#fff;}</style></defs><g id="Layer_2" data-name="Layer 2"><g id="UTSW"><g id="_Group_" data-name=" Group "><g id="_Group_2" data-name=" Group 2"><path id="_Compound_Path_" data-name=" Compound Path " class="cls-1" d="M159,58.1h5.71l9.88,26.36,9.93-26.36h5.72V89.48h-4V63.37h-.09l-9.8,26.11h-3.55l-9.8-26.11H163V89.48h-4Z"/><path id="_Compound_Path_2" data-name=" Compound Path 2" class="cls-1" d="M214.91,82.27c-1,5-4.61,7.73-9.71,7.73-7.25,0-10.67-5-10.89-12,0-6.81,4.48-11.82,10.67-11.82,8.05,0,10.5,7.51,10.29,13h-17c-.14,4,2.11,7.47,7.08,7.47,3.07,0,5.22-1.5,5.88-4.44ZM211.31,76a6.54,6.54,0,0,0-6.55-6.42c-3.91,0-6.23,2.94-6.5,6.42Z"/><path id="_Compound_Path_3" data-name=" Compound Path 3" class="cls-1" d="M240.34,89.48H236.6V86.4h-.08c-1.23,2.51-4.13,3.6-7.25,3.6-7,0-10.46-5.53-10.46-12s3.43-11.82,10.37-11.82c2.33,0,5.67.88,7.34,3.56h.08V58.1h3.74ZM229.8,86.71c5,0,6.94-4.31,6.94-8.57,0-4.48-2-8.61-7.17-8.61s-6.81,4.35-6.81,8.79C222.76,82.58,225,86.71,229.8,86.71Z"/><path id="_Compound_Path_4" data-name=" Compound Path 4" class="cls-1" d="M250.14,62.67h-3.73V58.1h3.73Zm-3.73,4.09h3.73V89.48h-3.73Z"/><path id="_Compound_Path_5" data-name=" Compound Path 5" class="cls-1" d="M271.58,74.06A5.28,5.28,0,0,0,266,69.53c-5.4,0-7.07,4.26-7.07,8.88,0,4.17,1.89,8.3,6.63,8.3,3.61,0,5.76-2.11,6.24-5.53h3.83c-.84,5.53-4.31,8.82-10,8.82-6.95,0-10.63-4.83-10.63-11.59s3.51-12.18,10.72-12.18c5.14,0,9.27,2.42,9.8,7.83Z"/><path id="_Compound_Path_6" data-name=" Compound Path 6" class="cls-1" d="M300,89.39a5,5,0,0,1-2.68.61c-1.93,0-3.16-1-3.16-3.51a10.09,10.09,0,0,1-8,3.51c-4.14,0-7.51-1.84-7.51-6.37,0-5.14,3.82-6.24,7.69-7,4.13-.79,7.64-.53,7.64-3.34,0-3.26-2.68-3.78-5.05-3.78-3.17,0-5.49,1-5.67,4.31H279.5c.22-5.63,4.56-7.61,9.61-7.61,4.09,0,8.53.93,8.53,6.24V84.16c0,1.76,0,2.55,1.19,2.55a3.17,3.17,0,0,0,1.14-.22Zm-6.06-11.65c-1.45,1.06-4.27,1.1-6.77,1.54s-4.57,1.32-4.57,4.09c0,2.46,2.11,3.34,4.4,3.34,4.91,0,6.94-3.08,6.94-5.14Z"/><path id="_Compound_Path_7" data-name=" Compound Path 7" class="cls-1" d="M305.09,58.1h3.74V89.48h-3.74Z"/><path id="_Compound_Path_8" data-name=" Compound Path 8" class="cls-1" d="M345.56,67.55c-.89-4.44-4.44-6.68-8.79-6.68-7.47,0-10.63,6.16-10.63,12.7,0,7.16,3.16,13.14,10.67,13.14,5.5,0,8.66-3.87,9.06-9H350c-.79,7.82-5.67,12.56-13.58,12.56-9.75,0-14.5-7.2-14.5-16.34s5.18-16.52,14.85-16.52c6.55,0,11.95,3.51,12.92,10.19Z"/><path id="_Compound_Path_9" data-name=" Compound Path 9" class="cls-1" d="M373.63,82.27c-1,5-4.62,7.73-9.71,7.73-7.25,0-10.68-5-10.9-12,0-6.81,4.48-11.82,10.67-11.82,8.05,0,10.51,7.51,10.29,13H357c-.13,4,2.1,7.47,7.07,7.47,3.08,0,5.23-1.5,5.89-4.44ZM370,76a6.52,6.52,0,0,0-6.54-6.42c-3.91,0-6.24,2.94-6.5,6.42Z"/><path id="_Compound_Path_10" data-name=" Compound Path 10" class="cls-1" d="M377.54,66.76h3.51v3.6h.09a7.89,7.89,0,0,1,7.38-4.13c6,0,7.82,3.43,7.82,8.31V89.48h-3.73V74.1a4.27,4.27,0,0,0-4-4.57,3.53,3.53,0,0,0-.65,0c-4.53,0-6.73,3-6.73,7.12V89.48h-3.73Z"/><path id="_Compound_Path_11" data-name=" Compound Path 11" class="cls-1" d="M407.68,66.76h4.52v3.29h-4.52V84.16c0,1.71.48,2,2.81,2h1.71v3.3h-2.85c-3.87,0-5.41-.79-5.41-5V70.05h-3.86V66.76h3.86V60h3.74Z"/><path id="_Compound_Path_12" data-name=" Compound Path 12" class="cls-1" d="M435.49,82.27c-1,5-4.61,7.73-9.71,7.73-7.25,0-10.68-5-10.9-12,0-6.81,4.49-11.82,10.68-11.82,8,0,10.5,7.51,10.28,13h-17c-.13,4,2.12,7.47,7.08,7.47,3.08,0,5.23-1.5,5.89-4.44ZM431.89,76a6.54,6.54,0,0,0-6.55-6.42c-3.91,0-6.24,2.94-6.51,6.42Z"/><path id="_Compound_Path_13" data-name=" Compound Path 13" class="cls-1" d="M440.06,66.76h3.51v4.78h.1c1.79-3.64,4.3-5.44,8.34-5.31v4c-6,0-8.22,3.42-8.22,9.18V89.48h-3.73Z"/></g><g id="_Group_3" data-name=" Group 3"><path id="_Compound_Path_14" data-name=" Compound Path 14" class="cls-1" d="M79.57,30.51c.21,4.59,3,6.06,7.15,6.06,3,0,6-1.09,6-4,0-3.44-5.41-4.09-10.87-5.68S70.83,22.81,70.83,15.65c0-8.51,8.32-11.85,15.42-11.85,7.52,0,15.09,3.77,15.15,12.57H91.54c.16-3.55-3.07-4.7-6.09-4.7-2.12,0-4.77.77-4.77,3.33,0,3,5.46,3.55,11,5.13s11,4.21,11,11.25c0,9.89-8.16,13.05-16.48,13.05-8.69,0-16.37-3.93-16.42-13.92Z"/><path id="_Compound_Path_15" data-name=" Compound Path 15" class="cls-1" d="M120.31,11c9.54,0,16.24,7.27,16.24,16.8s-6.7,16.74-16.24,16.74-16.17-7.21-16.17-16.74S110.78,11,120.31,11Zm0,25.6c4.68,0,6.17-4.77,6.17-8.8s-1.49-8.85-6.17-8.85-6.1,4.82-6.1,8.85S115.63,36.59,120.31,36.59Z"/><path id="_Compound_Path_16" data-name=" Compound Path 16" class="cls-1" d="M169.43,43.61h-9.78V39.28h-.12a11.2,11.2,0,0,1-9.36,5.25c-8.82,0-11.37-5.25-11.37-13.56V11.91h10.07V30.3c0,4.21,1.78,5.68,5,5.68,2.19,0,5.51-1.47,5.51-7.08v-17h10.07Z"/><path id="_Compound_Path_17" data-name=" Compound Path 17" class="cls-1" d="M192.56,18.63h-6.23V33c0,2.51,1.42,3.06,3.62,3.06.82,0,1.71-.12,2.61-.12v7.63c-1.85.07-3.68.31-5.52.31-8.59,0-10.78-2.56-10.78-11.18V18.63h-4.6V11.91h4.6V2.32h10.07v9.59h6.23Z"/><path id="_Compound_Path_18" data-name=" Compound Path 18" class="cls-1" d="M196.07,0h10.07V16.25h.12C207.79,13,212,11,215.62,11c10.25,0,11.08,7.7,11.08,12.29V43.61H216.62V28.28c0-4.34.48-8.73-5-8.73-3.8,0-5.45,3.3-5.45,6.78V43.61H196.07Z"/><path id="_Compound_Path_19" data-name=" Compound Path 19" class="cls-1" d="M266.81,43.61H256.62l-4.86-21.07h-.12l-4.8,21.07H236.65l-9.6-31.7h10.2l5.15,20.52h.12l4.38-20.52h9.6L261,32.38h.11l5-20.47h10.25Z"/><path id="_Compound_Path_20" data-name=" Compound Path 20" class="cls-1" d="M285.32,30.3c.17,4.33,2.6,7.21,6.87,7.21A6,6,0,0,0,297.94,34h9.41c-1.82,7.34-8.41,10.51-15.28,10.51-10,0-16.82-6.23-16.82-16.86A16.38,16.38,0,0,1,291.33,11h.51c11,0,16.53,8.56,16.05,19.31Zm12.5-5.81c-.18-3.54-2.61-6.47-6-6.47-3.56,0-5.93,2.63-6.52,6.47Z"/><path id="_Compound_Path_21" data-name=" Compound Path 21" class="cls-1" d="M319.47,33.17a4.31,4.31,0,0,0,1.65,3.54,6.17,6.17,0,0,0,3.74,1.1c1.95,0,4.74-.85,4.74-3.36s-3.14-2.93-4.92-3.35c-6.34-1.66-14.28-1.84-14.28-10.39,0-7.64,8-9.72,14-9.72,6.76,0,13.81,2,14.17,10.27H329.3a3,3,0,0,0-1.3-2.75,5.71,5.71,0,0,0-3.2-.79c-1.66,0-4.33.18-4.33,2.38,0,3,6.76,3.54,11.39,4.58,6.21,1.28,7.81,5.93,7.81,8.55,0,8.49-7.81,11.3-14.76,11.3-7.27,0-14.75-2.5-15-11.36Z"/><path id="_Compound_Path_22" data-name=" Compound Path 22" class="cls-1" d="M360.76,18.63h-6.22V33c0,2.51,1.42,3.06,3.62,3.06.83,0,1.71-.12,2.6-.12v7.63c-1.83.07-3.67.31-5.51.31-8.59,0-10.78-2.56-10.78-11.18V18.63h-5.1V11.91h5.1V2.32h10.07v9.59h6.22Z"/><path id="_Compound_Path_23" data-name=" Compound Path 23" class="cls-1" d="M371.49,30.3c.18,4.33,2.61,7.21,6.88,7.21A6,6,0,0,0,384.11,34h9.42c-1.84,7.34-8.41,10.51-15.29,10.51-10,0-16.82-6.23-16.82-16.86A16.37,16.37,0,0,1,377.49,11H378c11,0,16.54,8.56,16.06,19.31ZM384,24.49C383.82,21,381.38,18,378,18c-3.55,0-5.92,2.63-6.51,6.47Z"/><path id="_Compound_Path_24" data-name=" Compound Path 24" class="cls-1" d="M397.09,11.91h9.77v5.56H407c1.48-4,4.91-6.16,9.24-6.16a10.47,10.47,0,0,1,2.37.23V21a13.89,13.89,0,0,0-3.85-.61,7.18,7.18,0,0,0-7.58,6.76,6.42,6.42,0,0,0,0,.76V43.61H397.09Z"/><path id="_Compound_Path_25" data-name=" Compound Path 25" class="cls-1" d="M421.38,11.91h9.77v4.34h.12c1.84-3.24,6-5.26,9.66-5.26C451.18,11,452,18.69,452,23.28V43.61H441.93V28.28c0-4.34.48-8.73-5-8.73-3.79,0-5.45,3.3-5.45,6.78V43.61H421.38Z"/><path id="_Compound_Path_26" data-name=" Compound Path 26" class="cls-1" d="M65,13.69H53.41V43.62H43.27V13.69H32.55V5.48H65Z"/><path id="_Path_" data-name=" Path " class="cls-1" d="M16.61,44.43c11.49-.12,16.55-5.73,16.55-16.88V5.48H23V28.14c0,4.88-1.76,7.43-6.42,7.57-4.7-.13-6.47-2.67-6.47-7.57V5.48H0V27.55C0,38.71,5.07,44.32,16.61,44.43Z"/></g></g></g></g><script xmlns="" id="bw-fido2-page-script"/></svg>